<svg width="32" height="31" fill="none" xmlns="http://www.w3.org/2000/svg"><path d="M11.387 13.818c-.134-.411-.254-.809-.387-1.22-.133-.41-.253-.794-.36-1.178-.107-.371-.2-.716-.293-1.034h-.027c-.12.57-.267 1.14-.453 1.71-.2.635-.4 1.298-.614 1.96a20.529 20.529 0 0 1-.586 1.855h3.386a18.75 18.75 0 0 0-.306-.954 39.53 39.53 0 0 1-.36-1.14Zm11.44-.385a1.88 1.88 0 0 0-1.774 1.007c-.16.305-.253.623-.293.954h2.812c.347 0 .6 0 .76-.013a.656.656 0 0 0 .307-.106v-.133a1.74 1.74 0 0 0-.548-1.229 1.762 1.762 0 0 0-1.264-.48ZM26.333 0H5.667C2.533 0 0 2.517 0 5.63v19.74C0 28.483 2.533 31 5.667 31h20.666C29.467 31 32 28.483 32 25.37V5.63C32 2.517 29.467 0 26.333 0Zm-9.386 21.873H14.16c-.093.014-.187-.054-.213-.145l-1.094-3.18h-4.96L6.88 21.675a.233.233 0 0 1-.253.185H4.12c-.147 0-.187-.08-.147-.238l4.294-12.23c.04-.132.08-.251.133-.41.053-.278.08-.57.08-.861-.013-.066.04-.133.107-.146h3.453c.093 0 .16.04.173.106l4.867 13.58c.04.145.001.212-.133.212Zm10.468-5.287c-.028.25-.042.438-.055.557-.013.092-.092.172-.187.172-.08 0-.226.013-.44.028a6.357 6.357 0 0 1-.772.038c-.306 0-.628-.053-.973-.053h-4.227c.052.41.187.822.414 1.18.236.356.574.633.972.796a4.177 4.177 0 0 0 1.708.33 8.185 8.185 0 0 0 1.385-.145 4.917 4.917 0 0 0 1.188-.305c.067-.051.107-.026.107.106v2.029a.597.597 0 0 1-.028.157.322.322 0 0 1-.092.093 5.731 5.731 0 0 1-1.334.397 9.076 9.076 0 0 1-1.893.16c-1.015 0-1.867-.16-2.56-.464a4.519 4.519 0 0 1-1.681-1.259 4.869 4.869 0 0 1-.92-1.735 6.734 6.734 0 0 1-.279-1.936 6.7 6.7 0 0 1 .333-2.106 5.397 5.397 0 0 1 1-1.815c.44-.53.986-.954 1.612-1.259.628-.305 1.374-.41 2.227-.41a4.84 4.84 0 0 1 2.067.41 3.671 3.671 0 0 1 1.4 1.06c.346.45.626.954.801 1.51a5.22 5.22 0 0 1 .252 1.617c0 .317-.013.596-.025.847Z" fill="#000"/></svg>