<svg width="45" height="45" fill="none" xmlns="http://www.w3.org/2000/svg"><circle cx="22.5" cy="22.5" r="19.688" fill="#fff"/><path fill-rule="evenodd" clip-rule="evenodd" d="M21.72 8.674a1.406 1.406 0 0 1 1.56 0l12.656 8.437c.392.261.627.7.627 1.17v8.438c0 .47-.236.909-.627 1.17L23.28 36.326a1.406 1.406 0 0 1-1.56 0L9.064 27.89c-.392-.261-.627-.7-.627-1.17V18.28c0-.47.235-.909.627-1.17L21.72 8.674ZM11.25 20.909l2.387 1.591-2.387 1.591V20.91Zm1.129 5.81 8.715 5.81V27.47l-4.922-3.28-3.793 2.528Zm6.328-4.219 3.793 2.529 3.793-2.529-3.793-2.529-3.793 2.529Zm5.2-4.971 4.921 3.28 3.793-2.528-8.715-5.81v5.058Zm-2.813-5.058v5.058l-4.922 3.28-3.793-2.528 8.715-5.81ZM33.75 20.91 31.363 22.5l2.387 1.591V20.91Zm-1.129 5.81-3.793-2.529-4.922 3.281v5.058l8.715-5.81Z" fill="#212529"/></svg>