<svg width="282" height="65" viewBox="0 0 282 65" fill="none" xmlns="http://www.w3.org/2000/svg">
<path d="M28.1187 6.18242C77.5966 6.27501 137.351 5.88206 187.388 9.73904C210.843 11.547 245.535 14.7424 258.746 19.49C271.958 24.2375 281.207 35.0751 275.518 42.9707C267.837 53.6303 235.709 59.2163 195.386 61.6388C158.166 63.8748 115.464 61.041 81.3356 57.9464C64.8446 56.451 47.8342 54.5174 32.6711 51.0262C23.7562 48.9736 12.3457 45.2179 8.6664 40.0653C4.96975 34.8883 9.67592 26.3624 17.2144 22.1525C23.9603 18.3852 34.5651 16.2583 43.3145 14.4222C59.0495 11.1203 75.8065 9.15883 92.0463 7.05415C126.019 2.65123 160.452 -0.194834 193.954 3.3333C210.839 5.1114 227.099 8.16061 242.565 11.8312C254.543 14.6741 266.26 18.3306 273.78 24.1381C283.339 31.5201 283.798 43.893 271.337 51.4485C264.612 55.5263 254.29 57.7014 244.933 59.129C228.839 61.5847 211.728 62.1735 195.375 62.7633C156.522 64.1647 117.165 64.5104 78.8761 62.5805C60.7726 61.668 42.349 60.3419 25.7811 56.7082C17.3843 54.8666 8.53191 52.0061 4.63625 47.4664C-2.41261 39.2523 4.32796 28.5011 15.6251 21.455C37.2602 7.96111 77.6478 7.15632 106.758 5.80782C132.016 4.63778 157.383 4.25301 182.474 4.70267C203.755 5.08407 225.888 5.92107 245.815 9.41569C249.121 9.99542 260.387 11.5573 260.547 14.2171C260.619 15.415 256.315 16.4433 254.698 17.0379" stroke="black" stroke-width="1.7" stroke-linecap="round"/>
</svg>
