<svg width="100" height="105" viewBox="0 0 100 105" fill="none" xmlns="http://www.w3.org/2000/svg">
    <g id="fleches">
        <g id="vert">
            <g id="gradient">
                <path id="Vector" d="M27.804 27.118L22.8628 32.0872L50.5003 59.6968L78.1378 32.0593L73.1965 27.118L50.5003 49.8143L27.804 27.118V27.118Z" fill="#BEE3DB" fill-opacity="0.6"/>
            </g>
            <g id="plein">
                <path id="Vector_2" d="M27.804 36.118L22.8628 41.0872L50.5003 68.6968L78.1378 41.0593L73.1965 36.118L50.5003 58.8143L27.804 36.118V36.118Z" fill="#D3F3EF"/>
            </g>
        </g>
        <g id="mauve">
            <g id="gradient_2">
                <path id="Vector_3" d="M27.804 18.118L22.8628 23.0872L50.5003 50.6968L78.1378 23.0593L73.1965 18.118L50.5003 40.8143L27.804 18.118V18.118Z" fill="#DEC9E9" fill-opacity="0.6"/>
            </g>
            <g id="plein_2">
                <path id="Vector_4" d="M27.804 27.118L22.8628 32.0872L50.5003 59.6968L78.1378 32.0593L73.1965 27.118L50.5003 49.8143L27.804 27.118V27.118Z" fill="#E6D2F0"/>
            </g>
        </g>
        <g id="blanc">
            <g id="plein_3">
                <path id="Vector_5" d="M27.804 18.118L22.8628 23.0872L50.5003 50.6968L78.1378 23.0593L73.1965 18.118L50.5003 40.8143L27.804 18.118V18.118Z" fill="white"/>
            </g>
        </g>
    </g>
</svg>
