<svg width="45" height="45" fill="none" xmlns="http://www.w3.org/2000/svg"><path d="M22.549 3.75c-9.175-.001-16.996 6.652-18.464 15.709-1.47 9.056 3.847 17.84 12.552 20.74.937.168 1.273-.408 1.273-.903 0-.444-.015-1.622-.02-3.187-5.204 1.125-6.303-2.509-6.303-2.509a4.94 4.94 0 0 0-2.075-2.736c-1.688-1.16.13-1.134.13-1.134a3.917 3.917 0 0 1 2.862 1.927 3.983 3.983 0 0 0 5.438 1.555 4.009 4.009 0 0 1 1.19-2.501c-4.15-.471-8.516-2.076-8.516-9.244a7.247 7.247 0 0 1 1.924-5.008 6.727 6.727 0 0 1 .188-4.95s1.569-.505 5.14 1.914c3.064-.84 6.297-.84 9.36 0 3.574-2.42 5.142-1.914 5.142-1.914a6.695 6.695 0 0 1 .188 4.95 7.2 7.2 0 0 1 1.92 5.015c0 7.187-4.37 8.766-8.536 9.23a4.481 4.481 0 0 1 1.266 3.46c0 2.502-.022 4.52-.022 5.132 0 .5.333 1.082 1.288.898 8.7-2.903 14.012-11.688 12.54-20.742C39.542 10.398 31.72 3.748 22.549 3.75Z" fill="#fff"/></svg>