<svg width="32" height="31" fill="none" xmlns="http://www.w3.org/2000/svg"><path d="M14.04 13.818c-.133-.411-.253-.809-.387-1.22-.133-.41-.253-.794-.36-1.178-.106-.371-.2-.716-.293-1.034h-.027c-.12.57-.266 1.14-.453 1.71-.2.635-.4 1.298-.613 1.96a25.9 25.9 0 0 1-.587 1.855h3.387c-.08-.28-.187-.61-.307-.955-.12-.357-.24-.741-.36-1.138ZM26.333 0H5.667C2.533 0 0 2.517 0 5.63v19.74C0 28.483 2.533 31 5.667 31h20.666C29.467 31 32 28.483 32 25.37V5.63C32 2.517 29.467 0 26.333 0ZM19.6 21.899h-2.788c-.092.013-.185-.053-.212-.146L15.507 18.6h-4.96l-1.014 3.113a.235.235 0 0 1-.253.187H6.773c-.146 0-.186-.08-.146-.238L10.92 9.379c.04-.132.08-.278.133-.437.054-.278.08-.57.08-.86-.013-.067.04-.133.107-.147h3.453c.107 0 .16.04.174.106l4.866 13.646c.04.144 0 .212-.133.212Zm4.533-.199c0 .146-.052.212-.172.212h-2.614c-.134 0-.2-.08-.2-.212V11.5c0-.133.054-.186.174-.186h2.64c.12 0 .172.066.172.185V21.7Zm-.278-11.963a1.574 1.574 0 0 1-1.215.464 1.661 1.661 0 0 1-1.188-.464 1.715 1.715 0 0 1-.453-1.219c-.014-.45.16-.874.478-1.179.323-.304.75-.463 1.19-.463.521 0 .918.159 1.213.463.293.318.453.742.44 1.18.013.45-.147.887-.465 1.218Z" fill="#000"/></svg>