<svg width="45" height="45" fill="none" xmlns="http://www.w3.org/2000/svg"><rect x="2.813" y="2.813" width="39.375" height="39.375" rx="19.688" fill="#fff"/><path d="M17.745 13.63c0 1.314-1.14 2.38-2.545 2.38s-2.544-1.066-2.544-2.38c0-1.315 1.14-2.38 2.544-2.38 1.406 0 2.545 1.065 2.545 2.38ZM13.004 17.758h4.35v13.18h-4.35v-13.18ZM24.356 17.758h-4.35v13.18h4.35v-6.744c0-1.557.531-3.12 2.653-3.12 2.397 0 2.383 2.037 2.372 3.616-.015 2.063.02 4.169.02 6.247h4.349v-6.955c-.037-4.442-1.194-6.488-5.002-6.488-2.26 0-3.662 1.026-4.392 1.955v-1.69Z" fill="#212529"/></svg>