<svg width="111" height="46" fill="none" xmlns="http://www.w3.org/2000/svg"><path d="M0 6a6 6 0 0 1 6-6h83.702a6 6 0 0 1 6 6v21.74H0V6Z" fill="#FAE1DD"/><path d="M0 10.696a6 6 0 0 1 6-6h83.702a6 6 0 0 1 6 6v21.74H0v-21.74Z" fill="#CCDBFD"/><path d="M0 15.391a6 6 0 0 1 6-6h83.702a6 6 0 0 1 6 6v21.74H0v-21.74Z" fill="#D3F3EF"/><path d="M0 20a6 6 0 0 1 6-6h83.702a6 6 0 0 1 6 6v21.74H0V20Z" fill="#E6D2F0"/><path fill="#fff" d="M0 41h111v5H0z"/><path d="M36.283 26.678c-.078 0-.146.062-.205.185-.247.482-.51.918-.79 1.309a7 7 0 0 1-.831.996c-.28.273-.557.485-.83.635-.274.143-.53.215-.772.215-.234 0-.452-.05-.654-.147-.195-.104-.41-.296-.644-.576-.228-.28-.492-.667-.791-1.162a59.634 59.634 0 0 1-1.084-1.934.876.876 0 0 0-.225-.283c-.072-.065-.137-.098-.195-.098-.085 0-.163.091-.235.274a3.591 3.591 0 0 0-.185.752 13.21 13.21 0 0 0-.127 1.162c-.026.45-.04.947-.04 1.494 0 .326.017.651.05.977.039.325.058.66.058 1.005a.616.616 0 0 1-.098.332.897.897 0 0 1-.263.254c-.104.079-.231.14-.381.186a1.504 1.504 0 0 1-.459.068c-.326 0-.56-.195-.703-.586-.143-.39-.215-1.015-.215-1.875a22.7 22.7 0 0 1 .176-2.959c.123-.892.296-1.653.517-2.285.228-.638.495-1.13.801-1.474.313-.352.661-.528 1.045-.528.339 0 .66.196.967.586.312.384.648 1.01 1.006 1.875.143.352.296.68.459.986.169.306.335.573.498.801.17.222.332.397.488.528.156.123.296.185.42.185s.24-.026.352-.078c.117-.059.247-.179.39-.361.15-.19.322-.463.518-.82.202-.359.449-.837.742-1.436.156-.313.296-.573.42-.781.124-.209.247-.375.371-.498.124-.13.254-.222.39-.274.137-.058.29-.088.46-.088.201 0 .4.108.595.323.196.214.384.5.567.859.189.358.37.775.547 1.25.175.475.345.973.507 1.494.17.52.332 1.051.489 1.592.162.534.319 1.041.468 1.523.04.143.066.244.078.303a.607.607 0 0 1-.078.527 1.077 1.077 0 0 1-.263.284c-.11.084-.238.152-.381.205a1.144 1.144 0 0 1-.41.078c-.183 0-.326-.02-.43-.059a.51.51 0 0 1-.234-.234 3.368 3.368 0 0 1-.166-.469 83.71 83.71 0 0 0-.283-.898 34.795 34.795 0 0 0-.352-1.114 15.51 15.51 0 0 0-.381-1.074 6.432 6.432 0 0 0-.361-.82c-.117-.222-.222-.332-.313-.332Zm12.725 3.183c.189-.162.374-.244.556-.244a.53.53 0 0 1 .284.078c.084.052.179.134.283.244.097.15.166.274.205.372a.607.607 0 0 1 .068.273c0 .195-.097.38-.293.557-.312.26-.65.494-1.015.703a7.86 7.86 0 0 1-1.143.517c-.397.144-.807.251-1.23.323a6.93 6.93 0 0 1-1.26.117 5.21 5.21 0 0 1-1.485-.205 4.236 4.236 0 0 1-1.24-.567 3.682 3.682 0 0 1-.908-.888 3.407 3.407 0 0 1-.527-1.182c-.059-.182-.114-.3-.166-.352-.046-.058-.124-.087-.235-.087-.24 0-.426-.06-.556-.176-.13-.117-.196-.287-.196-.508 0-.091.007-.15.02-.176l.02-.195c.032-.235.094-.404.185-.508.098-.104.247-.156.45-.156h.146a.584.584 0 0 0 .576-.381c.202-.45.459-.86.771-1.23a5.004 5.004 0 0 1 1.055-.948c.39-.267.807-.472 1.25-.615.45-.15.905-.225 1.367-.225.482 0 .931.072 1.348.215.423.137.79.329 1.103.576.313.248.557.537.733.87.182.332.273.69.273 1.074 0 .267-.052.51-.156.732a1.767 1.767 0 0 1-.45.586 2.423 2.423 0 0 1-.712.4 3.55 3.55 0 0 1-.938.206l-3.388.341a.513.513 0 0 0-.322.098.325.325 0 0 0-.118.264c0 .169.062.332.186.488.13.156.3.296.508.42.215.117.459.212.732.283.28.072.566.108.86.108.28 0 .566-.026.859-.079a6.554 6.554 0 0 0 1.728-.615c.274-.15.53-.319.772-.508Zm-2.178-2.52a.487.487 0 0 0 .254-.136.416.416 0 0 0 0-.557.969.969 0 0 0-.293-.224 1.599 1.599 0 0 0-.43-.166 2.215 2.215 0 0 0-.517-.059 3.336 3.336 0 0 0-1.582.43 2.116 2.116 0 0 0-.557.42c-.143.15-.215.3-.215.449 0 .15.091.225.274.225.11 0 .29-.013.537-.04.247-.025.52-.055.82-.087a51.537 51.537 0 0 0 1.71-.254Zm4.365-3.222c0-.098.043-.192.127-.283a1.12 1.12 0 0 1 .332-.254c.137-.078.29-.14.46-.186.175-.052.35-.078.527-.078.097 0 .179.026.244.078.071.053.133.153.185.303.052.143.098.348.137.615.046.26.088.603.127 1.026.026.13.049.231.068.303.026.065.059.097.098.097.059 0 .117-.1.176-.302.475-1.374 1.162-2.061 2.06-2.061.417 0 .795.13 1.133.39.345.261.664.687.957 1.28.3.586.583 1.36.85 2.324.267.957.534 2.139.8 3.545.014.072.023.137.03.195.006.059.01.114.01.166 0 .15-.036.28-.108.391a.85.85 0 0 1-.264.264c-.11.065-.234.114-.37.146-.137.04-.274.059-.41.059-.274 0-.473-.03-.596-.088-.118-.059-.193-.17-.225-.332a61.256 61.256 0 0 0-.557-2.637 20.41 20.41 0 0 0-.527-1.933c-.17-.528-.339-.928-.508-1.202-.17-.273-.338-.41-.508-.41-.169 0-.328.108-.478.322-.143.209-.283.538-.42.987-.137.449-.27 1.019-.4 1.709-.124.69-.245 1.513-.362 2.47a.86.86 0 0 1-.39.625c-.228.157-.518.235-.87.235-.234 0-.413-.049-.537-.147a.539.539 0 0 1-.205-.4 89.3 89.3 0 0 0-.195-3.34 60.522 60.522 0 0 0-.186-2.11 33.275 33.275 0 0 0-.146-1.19 4.319 4.319 0 0 1-.059-.577Zm11.397 4.424c0 .872.133 1.546.4 2.021.267.476.655.713 1.162.713.32 0 .612-.094.88-.283a2.39 2.39 0 0 0 .702-.79c.196-.34.345-.74.45-1.202.11-.469.166-.977.166-1.523 0-.332-.014-.619-.04-.86a10.088 10.088 0 0 0-.087-.654 13.363 13.363 0 0 0-.078-.518 2.505 2.505 0 0 1-.04-.43c0-.208.088-.357.264-.449.176-.097.456-.146.84-.146.488 0 .866.11 1.133.332.273.221.41.543.41.967 0 1.152-.114 2.187-.342 3.105-.221.918-.544 1.7-.967 2.344-.416.638-.924 1.13-1.523 1.474a3.957 3.957 0 0 1-2.012.518 3.27 3.27 0 0 1-1.465-.332 3.447 3.447 0 0 1-1.152-.908 4.539 4.539 0 0 1-.752-1.406 5.652 5.652 0 0 1-.273-1.797c0-.248.006-.511.02-.791.012-.28.032-.58.058-.899.026-.325.058-.677.097-1.054l.147-1.23a.604.604 0 0 1 .263-.45c.163-.117.368-.176.616-.176.221 0 .43.023.625.069.195.045.361.107.498.185.143.078.254.17.332.273a.518.518 0 0 1 .127.332c0 .118-.026.303-.078.557l-.157.86c-.052.319-.104.667-.156 1.044a9.04 9.04 0 0 0-.068 1.104Z" fill="#212529"/></svg>