<svg width="32" height="31" fill="none" xmlns="http://www.w3.org/2000/svg"><path d="M13.133 10.758a3.934 3.934 0 0 0-1.573-.265c-.347 0-.653 0-.907.013a3.07 3.07 0 0 0-.546.013v4.452c.186.013.36.026.52.026h.706c.52 0 1.04-.08 1.534-.238.426-.12.8-.371 1.093-.702.28-.332.413-.782.413-1.365a2.17 2.17 0 0 0-.306-1.18 1.932 1.932 0 0 0-.934-.754ZM26.333 0H5.667C2.533 0 0 2.517 0 5.63v19.74C0 28.482 2.533 31 5.667 31h20.666C29.467 31 32 28.483 32 25.37V5.63C32 2.518 29.467 0 26.333 0ZM16.48 15.434a4.555 4.555 0 0 1-2.146 1.617c-.906.33-1.906.45-3 .45-.32 0-.533 0-.666-.013-.134-.013-.32-.013-.574-.013v4.251a.166.166 0 0 1-.146.187H7.36c-.107 0-.16-.054-.16-.174V8.108c0-.093.04-.146.133-.146.227 0 .44 0 .747-.013.32-.013.653-.013 1.013-.026.36-.014.747-.014 1.16-.027.414-.013.814-.013 1.214-.013 1.093 0 2 .132 2.746.41.667.226 1.28.597 1.787 1.087.427.424.76.94.973 1.51.199.557.306 1.126.306 1.723.001 1.139-.266 2.08-.8 2.821Zm9.454 5.154c-.373.53-.894.94-1.493 1.18-.653.277-1.453.422-2.415.422a9.23 9.23 0 0 1-1.812-.171 5.456 5.456 0 0 1-1.36-.424c-.093-.052-.161-.144-.148-.25v-2.306c0-.038.015-.092.055-.119.039-.026.08-.013.12.013.52.305 1.067.518 1.653.65a6.23 6.23 0 0 0 1.574.198c.506 0 .866-.067 1.106-.187a.615.615 0 0 0 .36-.556c0-.187-.106-.358-.32-.53-.213-.17-.652-.37-1.305-.624a8.255 8.255 0 0 1-1.893-.953 3.484 3.484 0 0 1-1.015-1.126 2.843 2.843 0 0 1-.305-1.352c0-.57.16-1.113.454-1.603.334-.53.826-.954 1.399-1.22.625-.316 1.412-.462 2.359-.462.546 0 1.106.04 1.653.12.4.053.787.159 1.147.304a.238.238 0 0 1 .133.12c.013.053.027.106.027.159v2.16a.163.163 0 0 1-.067.132c-.12.026-.187.026-.24 0a4.74 4.74 0 0 0-1.28-.45 7.07 7.07 0 0 0-1.493-.173 2.715 2.715 0 0 0-.802.093.689.689 0 0 0-.413.265.699.699 0 0 0-.107.357c0 .12.054.239.135.345.12.146.279.265.453.357.306.16.627.305.946.438.721.238 1.414.57 2.054.967.44.277.8.649 1.052 1.1.214.42.32.887.307 1.363a3.061 3.061 0 0 1-.519 1.763Z" fill="#000"/></svg>