<svg width="42" height="42" fill="none" xmlns="http://www.w3.org/2000/svg"><path d="M0 21v21h42V0H0v21Zm33.844-1.675a5.28 5.28 0 0 1 2.632 1.518c.383.409.956 1.161 1.005 1.346.013.055-1.811 1.279-2.919 1.962-.04.028-.205-.143-.383-.41-.54-.787-1.108-1.128-1.976-1.19-1.271-.082-2.092.582-2.085 1.696-.007.273.054.543.177.786.281.582.807.93 2.433 1.634 3.009 1.292 4.294 2.146 5.093 3.356.895 1.354 1.093 3.514.492 5.127-.67 1.743-2.324 2.932-4.649 3.322-.718.13-2.427.109-3.2-.034-1.687-.3-3.287-1.135-4.272-2.229-.39-.424-1.142-1.538-1.093-1.613.02-.027.192-.136.383-.247l1.56-.903 1.21-.703.253.375c.356.54 1.127 1.279 1.593 1.524 1.34.711 3.18.61 4.089-.205.369-.307.575-.78.547-1.257 0-.486-.062-.703-.315-1.067-.328-.465-.99-.861-2.885-1.681-2.167-.938-3.104-1.511-3.95-2.434a5.561 5.561 0 0 1-1.155-2.098c-.158-.595-.199-2.086-.075-2.68.445-2.1 2.03-3.555 4.306-3.985.739-.143 2.46-.09 3.185.089v.001Zm-9.857 1.758L24 22.798h-5.469v15.539h-3.87V22.798h-5.46v-1.681c0-.937.02-1.716.047-1.737.02-.027 3.343-.04 7.376-.034l7.342.021.021 1.716Z" fill="#000"/></svg>